<svg width="100" height="22" viewBox="0 0 100 22" fill="none" xmlns="http://www.w3.org/2000/svg">
<path d="M89.978 21.5928L92.7476 15.467H92.0669L87.5371 4.78796H90.2362L93.7098 13.3077L97.3947 4.78796H99.9999L92.6067 21.5928H89.978Z" fill="#09090B"/>
<path d="M80.6456 16.711C79.7224 16.711 78.9479 16.5545 78.322 16.2416C77.6961 15.913 77.2267 15.4827 76.9137 14.9507C76.6008 14.4031 76.4443 13.8085 76.4443 13.1669C76.4443 12.0247 76.859 11.1328 77.6883 10.4913C78.5332 9.84979 79.7224 9.52902 81.2558 9.52902H84.26V9.27085C84.26 7.51839 83.4464 6.64216 81.8191 6.64216C81.1463 6.64216 80.5751 6.7908 80.1057 7.0881C79.652 7.36974 79.3469 7.83133 79.1904 8.47285H76.7025C76.8277 7.25239 77.3519 6.2901 78.275 5.58599C79.2139 4.86623 80.3952 4.50635 81.8191 4.50635C83.5402 4.50635 84.792 4.92882 85.5744 5.77375C86.3567 6.61869 86.7479 7.78439 86.7479 9.27085V16.4293H84.6355L84.4243 14.716H84.26C83.9158 15.2636 83.4855 15.733 82.9691 16.1242C82.4528 16.5154 81.6783 16.711 80.6456 16.711ZM81.115 14.6221C82.132 14.6221 82.8909 14.317 83.3916 13.7068C83.908 13.0809 84.1896 12.2907 84.2365 11.3362H81.514C80.6221 11.3362 79.9884 11.4849 79.6129 11.7822C79.253 12.0638 79.073 12.4628 79.073 12.9792C79.073 13.4955 79.253 13.9023 79.6129 14.1996C79.9884 14.4813 80.4891 14.6221 81.115 14.6221Z" fill="#09090B"/>
<path d="M64.3662 16.4293V0H69.9287C71.1805 0 72.2132 0.219057 73.0268 0.657172C73.8405 1.07964 74.4429 1.6664 74.834 2.41746C75.2252 3.16851 75.4208 4.02909 75.4208 4.9992C75.4208 5.96932 75.2252 6.8299 74.834 7.58095C74.4429 8.33201 73.8405 8.92659 73.0268 9.36471C72.2132 9.78718 71.1805 9.99841 69.9287 9.99841H66.8541V16.4293H64.3662ZM66.8541 7.76872H69.8114C70.8754 7.76872 71.6499 7.51837 72.1349 7.01766C72.6356 6.51696 72.886 5.84414 72.886 4.9992C72.886 4.16992 72.6356 3.50492 72.1349 3.00422C71.6499 2.48787 70.8754 2.22969 69.8114 2.22969H66.8541V7.76872Z" fill="#09090B"/>
<path d="M42.5137 16.4294V4.60025H45.5883L45.8934 6.12583C46.2689 5.57818 46.7618 5.14007 47.3721 4.81148C47.9979 4.4829 48.7177 4.3186 49.5313 4.3186C50.1103 4.3186 50.6345 4.39684 51.1039 4.55331C51.5733 4.69413 51.9879 4.91319 52.3478 5.21048C52.7077 5.49213 53.005 5.85201 53.2397 6.29012C53.6934 5.67989 54.2724 5.20266 54.9765 4.85842C55.6806 4.49854 56.4473 4.3186 57.2766 4.3186C58.3406 4.3186 59.2168 4.52984 59.9053 4.95231C60.6094 5.37477 61.1336 5.98501 61.4778 6.783C61.822 7.581 61.9942 8.55111 61.9942 9.69334V16.4294H58.4971V9.99845C58.4971 9.13787 58.3249 8.47287 57.9807 8.00346C57.6521 7.51841 57.1201 7.27588 56.3847 7.27588C55.9153 7.27588 55.5007 7.39323 55.1408 7.62794C54.7809 7.86264 54.4993 8.19123 54.2958 8.6137C54.1081 9.03616 54.0142 9.54469 54.0142 10.1393V16.4294H50.5171V9.99845C50.5171 9.13787 50.345 8.47287 50.0008 8.00346C49.6565 7.51841 49.1011 7.27588 48.3343 7.27588C47.8962 7.27588 47.4972 7.39323 47.1374 7.62794C46.7931 7.86264 46.5193 8.19123 46.3159 8.6137C46.1281 9.03616 46.0342 9.54469 46.0342 10.1393V16.4294H42.5137Z" fill="#09090B"/>
<path d="M33.2278 16.711C32.242 16.711 31.4206 16.5545 30.7634 16.2416C30.1219 15.9287 29.6446 15.5062 29.3317 14.9742C29.0344 14.4265 28.8857 13.8241 28.8857 13.167C28.8857 12.4628 29.0579 11.8448 29.4021 11.3128C29.762 10.7652 30.3174 10.3349 31.0685 10.0219C31.8195 9.69334 32.7662 9.52904 33.9084 9.52904H36.7718C36.7718 8.99705 36.7014 8.55893 36.5606 8.2147C36.4354 7.87047 36.2242 7.61229 35.9269 7.44017C35.6296 7.26806 35.2228 7.182 34.7064 7.182C34.1588 7.182 33.6972 7.29153 33.3217 7.51058C32.9461 7.72964 32.7114 8.07388 32.6175 8.54328H29.2378C29.316 7.69835 29.5899 6.96294 30.0593 6.33706C30.5443 5.71118 31.1858 5.2183 31.9838 4.85842C32.7818 4.49854 33.6972 4.3186 34.7299 4.3186C35.8565 4.3186 36.8344 4.50637 37.6637 4.8819C38.493 5.24178 39.1345 5.77377 39.5883 6.47788C40.0577 7.182 40.2924 8.05823 40.2924 9.10658V16.4294H37.3586L36.9361 14.716C36.764 15.0133 36.5606 15.2871 36.3259 15.5375C36.0912 15.7722 35.8174 15.9834 35.5044 16.1712C35.1915 16.3433 34.8472 16.4763 34.4717 16.5702C34.0962 16.6641 33.6815 16.711 33.2278 16.711ZM34.0962 14.0354C34.4717 14.0354 34.8003 13.9728 35.0819 13.8476C35.3636 13.7224 35.6061 13.5503 35.8095 13.3313C36.0129 13.1122 36.1772 12.8618 36.3024 12.5802C36.4432 12.2829 36.5449 11.9621 36.6075 11.6179V11.5944H34.3309C33.9397 11.5944 33.6111 11.6492 33.3451 11.7587C33.0948 11.8526 32.907 11.9934 32.7818 12.1812C32.6567 12.369 32.5941 12.588 32.5941 12.8384C32.5941 13.1044 32.6567 13.3313 32.7818 13.519C32.9227 13.6911 33.1026 13.8241 33.3217 13.918C33.5564 13.9963 33.8145 14.0354 34.0962 14.0354Z" fill="#09090B"/>
<path d="M21.3446 16.711C20.1241 16.711 19.0523 16.4606 18.1292 15.9599C17.206 15.4436 16.4784 14.7317 15.9464 13.8241C15.4301 12.901 15.1719 11.8448 15.1719 10.6556C15.1719 9.43516 15.4301 8.3477 15.9464 7.39323C16.4628 6.43877 17.1825 5.68771 18.1057 5.14007C19.0289 4.59243 20.1007 4.3186 21.3211 4.3186C22.5103 4.3186 23.5508 4.57678 24.4427 5.09313C25.3346 5.60948 26.0309 6.31359 26.5316 7.20547C27.0479 8.0817 27.3061 9.09875 27.3061 10.2566C27.3061 10.4131 27.2983 10.593 27.2826 10.7964C27.2826 10.9842 27.267 11.1798 27.2357 11.3832H17.6832V9.34128H23.7151C23.6838 8.68411 23.4413 8.15993 22.9875 7.76876C22.5494 7.36194 22.0018 7.15853 21.3446 7.15853C20.8439 7.15853 20.3901 7.27588 19.9833 7.51058C19.5765 7.74529 19.2479 8.09735 18.9976 8.56676C18.7629 9.03616 18.6455 9.63075 18.6455 10.3505V11.0546C18.6455 11.6023 18.7472 12.0873 18.9506 12.5098C19.1697 12.9323 19.4748 13.2608 19.866 13.4955C20.2728 13.7303 20.75 13.8476 21.2977 13.8476C21.814 13.8476 22.2365 13.7459 22.5651 13.5425C22.9093 13.3234 23.1753 13.0496 23.3631 12.721H26.9541C26.735 13.4721 26.3595 14.1527 25.8275 14.763C25.2955 15.3575 24.6461 15.8348 23.8794 16.1947C23.1127 16.5389 22.2678 16.711 21.3446 16.711Z" fill="#09090B"/>
<path d="M0 16.4293L2.88687 0H9.92801C10.9607 0 11.8213 0.15647 12.5098 0.46941C13.1982 0.766702 13.7146 1.19699 14.0588 1.76028C14.4031 2.32357 14.5595 2.98857 14.5282 3.75527C14.4969 4.58456 14.2701 5.31997 13.8476 5.96149C13.4251 6.58737 12.8696 7.0959 12.1812 7.48707C11.4927 7.8626 10.726 8.08948 9.88107 8.16771L10.3035 7.88607C10.992 7.91736 11.5788 8.0973 12.0638 8.42589C12.5645 8.73883 12.9401 9.15347 13.1904 9.66982C13.4564 10.1862 13.5738 10.7651 13.5425 11.4066C13.4955 12.4237 13.1904 13.3077 12.6271 14.0588C12.0795 14.8099 11.3362 15.3966 10.3974 15.8191C9.4586 16.2259 8.41025 16.4293 7.25238 16.4293H0ZM4.01345 13.6129H7.1585C7.75308 13.6129 8.25378 13.5112 8.66061 13.3077C9.08307 13.1043 9.41166 12.8227 9.64637 12.4628C9.88107 12.0873 10.0062 11.6492 10.0219 11.1485C10.0532 10.5852 9.88107 10.1471 9.50554 9.83412C9.13002 9.50553 8.58237 9.34124 7.86261 9.34124H4.76451L4.01345 13.6129ZM5.23392 6.78296H8.09731C8.91096 6.78296 9.56031 6.57955 10.0454 6.17273C10.5304 5.75026 10.7886 5.17915 10.8199 4.45938C10.8355 4.0995 10.7651 3.79439 10.6087 3.54404C10.4678 3.29369 10.241 3.10592 9.92801 2.98075C9.63072 2.83992 9.24737 2.76951 8.77796 2.76951L5.91456 2.79298L5.23392 6.78296Z" fill="#09090B"/>
</svg>
