<svg width="136" height="108" viewBox="0 0 136 108" fill="none" xmlns="http://www.w3.org/2000/svg">
<g filter="url(#filter0_d_995_2961)">
<rect x="8" y="6" width="120" height="92" rx="32" fill="url(#paint0_linear_995_2961)"/>
<g filter="url(#filter1_d_995_2961)">
<rect x="14" y="12" width="108" height="80" rx="26" fill="url(#paint1_linear_995_2961)"/>
<rect x="14.5" y="12.5" width="107" height="79" rx="25.5" stroke="#81B700"/>
<rect x="19" y="17" width="98" height="70" rx="21" fill="url(#paint2_linear_995_2961)"/>
<g filter="url(#filter2_di_995_2961)">
<path d="M56 36.3333V33.6667C56 32.9594 56.281 32.2811 56.781 31.781C57.2811 31.281 57.9594 31 58.6667 31H61.3333M74.6667 31H77.3333C78.0406 31 78.7188 31.281 79.2189 31.781C79.719 32.2811 80 32.9594 80 33.6667V36.3333M80 49.6666V52.3333C80 53.0405 79.719 53.7188 79.2189 54.2189C78.7188 54.719 78.0406 54.9999 77.3333 54.9999H74.6667M61.3333 54.9999H58.6667C57.9594 54.9999 57.2811 54.719 56.781 54.2189C56.281 53.7188 56 53.0405 56 52.3333V49.6666M61.3333 43H74.6667" stroke="#415C0B" stroke-width="4" stroke-linecap="round" stroke-linejoin="round" shape-rendering="crispEdges"/>
</g>
<g filter="url(#filter3_di_995_2961)">
<path d="M58.7923 73V64.6H61.6483C62.3203 64.6 62.8723 64.712 63.3043 64.936C63.7443 65.16 64.0683 65.464 64.2763 65.848C64.4843 66.224 64.5883 66.656 64.5883 67.144C64.5883 67.608 64.4843 68.032 64.2763 68.416C64.0683 68.8 63.7483 69.108 63.3163 69.34C62.8843 69.564 62.3283 69.676 61.6483 69.676H59.9923V73H58.7923ZM59.9923 68.68H61.6003C62.2403 68.68 62.6923 68.54 62.9563 68.26C63.2283 67.98 63.3643 67.608 63.3643 67.144C63.3643 66.656 63.2283 66.276 62.9563 66.004C62.6923 65.732 62.2403 65.596 61.6003 65.596H59.9923V68.68ZM67.5212 73.144C67.0332 73.144 66.6252 73.06 66.2972 72.892C65.9772 72.716 65.7372 72.484 65.5772 72.196C65.4172 71.908 65.3372 71.596 65.3372 71.26C65.3372 70.86 65.4372 70.516 65.6372 70.228C65.8452 69.94 66.1412 69.72 66.5252 69.568C66.9092 69.416 67.3692 69.34 67.9052 69.34H69.4652C69.4652 68.972 69.4172 68.668 69.3212 68.428C69.2252 68.188 69.0732 68.008 68.8652 67.888C68.6652 67.768 68.4052 67.708 68.0852 67.708C67.7332 67.708 67.4332 67.792 67.1852 67.96C66.9372 68.128 66.7812 68.376 66.7172 68.704H65.5172C65.5652 68.28 65.7092 67.92 65.9492 67.624C66.1892 67.328 66.4932 67.1 66.8612 66.94C67.2372 66.78 67.6452 66.7 68.0852 66.7C68.6532 66.7 69.1252 66.8 69.5012 67C69.8852 67.2 70.1732 67.484 70.3652 67.852C70.5652 68.212 70.6652 68.644 70.6652 69.148V73H69.6092L69.5132 71.968C69.4332 72.136 69.3292 72.292 69.2012 72.436C69.0812 72.572 68.9372 72.696 68.7692 72.808C68.6092 72.912 68.4252 72.992 68.2172 73.048C68.0092 73.112 67.7772 73.144 67.5212 73.144ZM67.7492 72.172C67.9972 72.172 68.2252 72.12 68.4332 72.016C68.6412 71.904 68.8172 71.76 68.9612 71.584C69.1132 71.4 69.2292 71.196 69.3092 70.972C69.3892 70.74 69.4332 70.496 69.4412 70.24V70.18H68.0252C67.6812 70.18 67.4052 70.224 67.1972 70.312C66.9892 70.4 66.8372 70.52 66.7412 70.672C66.6452 70.816 66.5972 70.984 66.5972 71.176C66.5972 71.376 66.6412 71.552 66.7292 71.704C66.8172 71.848 66.9492 71.964 67.1252 72.052C67.3012 72.132 67.5092 72.172 67.7492 72.172ZM72.7765 75.64L74.2165 72.328H73.8685L71.4925 66.844H72.7885L74.6725 71.332L76.5805 66.844H77.8285L74.0245 75.64H72.7765Z" fill="#415C0B"/>
</g>
</g>
</g>
<defs>
<filter id="filter0_d_995_2961" x="0" y="0" width="136" height="108" filterUnits="userSpaceOnUse" color-interpolation-filters="sRGB">
<feFlood flood-opacity="0" result="BackgroundImageFix"/>
<feColorMatrix in="SourceAlpha" type="matrix" values="0 0 0 0 0 0 0 0 0 0 0 0 0 0 0 0 0 0 127 0" result="hardAlpha"/>
<feOffset dy="2"/>
<feGaussianBlur stdDeviation="4"/>
<feComposite in2="hardAlpha" operator="out"/>
<feColorMatrix type="matrix" values="0 0 0 0 0.121569 0 0 0 0 0.360784 0 0 0 0 0.0431373 0 0 0 0.2 0"/>
<feBlend mode="normal" in2="BackgroundImageFix" result="effect1_dropShadow_995_2961"/>
<feBlend mode="normal" in="SourceGraphic" in2="effect1_dropShadow_995_2961" result="shape"/>
</filter>
<filter id="filter1_d_995_2961" x="12" y="10" width="112" height="84" filterUnits="userSpaceOnUse" color-interpolation-filters="sRGB">
<feFlood flood-opacity="0" result="BackgroundImageFix"/>
<feColorMatrix in="SourceAlpha" type="matrix" values="0 0 0 0 0 0 0 0 0 0 0 0 0 0 0 0 0 0 127 0" result="hardAlpha"/>
<feMorphology radius="2" operator="dilate" in="SourceAlpha" result="effect1_dropShadow_995_2961"/>
<feOffset/>
<feComposite in2="hardAlpha" operator="out"/>
<feColorMatrix type="matrix" values="0 0 0 0 0.898039 0 0 0 0 0.905882 0 0 0 0 0.921569 0 0 0 1 0"/>
<feBlend mode="normal" in2="BackgroundImageFix" result="effect1_dropShadow_995_2961"/>
<feBlend mode="normal" in="SourceGraphic" in2="effect1_dropShadow_995_2961" result="shape"/>
</filter>
<filter id="filter2_di_995_2961" x="52" y="28" width="32" height="32" filterUnits="userSpaceOnUse" color-interpolation-filters="sRGB">
<feFlood flood-opacity="0" result="BackgroundImageFix"/>
<feColorMatrix in="SourceAlpha" type="matrix" values="0 0 0 0 0 0 0 0 0 0 0 0 0 0 0 0 0 0 127 0" result="hardAlpha"/>
<feOffset dy="1"/>
<feGaussianBlur stdDeviation="1"/>
<feComposite in2="hardAlpha" operator="out"/>
<feColorMatrix type="matrix" values="0 0 0 0 1 0 0 0 0 1 0 0 0 0 1 0 0 0 0.4 0"/>
<feBlend mode="normal" in2="BackgroundImageFix" result="effect1_dropShadow_995_2961"/>
<feBlend mode="normal" in="SourceGraphic" in2="effect1_dropShadow_995_2961" result="shape"/>
<feColorMatrix in="SourceAlpha" type="matrix" values="0 0 0 0 0 0 0 0 0 0 0 0 0 0 0 0 0 0 127 0" result="hardAlpha"/>
<feOffset dy="1"/>
<feGaussianBlur stdDeviation="1.5"/>
<feComposite in2="hardAlpha" operator="arithmetic" k2="-1" k3="1"/>
<feColorMatrix type="matrix" values="0 0 0 0 0 0 0 0 0 0 0 0 0 0 0 0 0 0 0.7 0"/>
<feBlend mode="normal" in2="shape" result="effect2_innerShadow_995_2961"/>
</filter>
<filter id="filter3_di_995_2961" x="56.7923" y="63.6001" width="23.0362" height="15.0398" filterUnits="userSpaceOnUse" color-interpolation-filters="sRGB">
<feFlood flood-opacity="0" result="BackgroundImageFix"/>
<feColorMatrix in="SourceAlpha" type="matrix" values="0 0 0 0 0 0 0 0 0 0 0 0 0 0 0 0 0 0 127 0" result="hardAlpha"/>
<feOffset dy="1"/>
<feGaussianBlur stdDeviation="1"/>
<feComposite in2="hardAlpha" operator="out"/>
<feColorMatrix type="matrix" values="0 0 0 0 1 0 0 0 0 1 0 0 0 0 1 0 0 0 0.4 0"/>
<feBlend mode="normal" in2="BackgroundImageFix" result="effect1_dropShadow_995_2961"/>
<feBlend mode="normal" in="SourceGraphic" in2="effect1_dropShadow_995_2961" result="shape"/>
<feColorMatrix in="SourceAlpha" type="matrix" values="0 0 0 0 0 0 0 0 0 0 0 0 0 0 0 0 0 0 127 0" result="hardAlpha"/>
<feOffset dy="1"/>
<feGaussianBlur stdDeviation="1.5"/>
<feComposite in2="hardAlpha" operator="arithmetic" k2="-1" k3="1"/>
<feColorMatrix type="matrix" values="0 0 0 0 0 0 0 0 0 0 0 0 0 0 0 0 0 0 0.7 0"/>
<feBlend mode="normal" in2="shape" result="effect2_innerShadow_995_2961"/>
</filter>
<linearGradient id="paint0_linear_995_2961" x1="68" y1="6" x2="68" y2="98" gradientUnits="userSpaceOnUse">
<stop stop-color="#F9FAFB"/>
<stop offset="1" stop-color="#E5E7EB"/>
</linearGradient>
<linearGradient id="paint1_linear_995_2961" x1="68" y1="12" x2="68" y2="92" gradientUnits="userSpaceOnUse">
<stop stop-color="#D9FF51"/>
<stop offset="1" stop-color="#81B700"/>
</linearGradient>
<linearGradient id="paint2_linear_995_2961" x1="68" y1="87" x2="68" y2="17" gradientUnits="userSpaceOnUse">
<stop stop-color="#D9FF51"/>
<stop offset="1" stop-color="#A6E500"/>
</linearGradient>
</defs>
</svg>
